<svg width="20" height="25" viewBox="0 0 20 25" fill="none" xmlns="http://www.w3.org/2000/svg">
<path id="Vector" d="M17.9893 11.2051C17.6718 10.7951 17.2854 10.4398 16.9266 10.0846C16.0019 9.26468 14.953 8.67709 14.0697 7.81622C12.0133 5.82117 11.5579 2.52797 12.869 0C11.5579 0.314288 10.4124 1.02485 9.43251 1.80374C5.85799 4.646 4.45027 9.66095 6.13402 13.9653C6.18922 14.102 6.24442 14.2386 6.24442 14.4163C6.24442 14.7169 6.03741 14.9902 5.76138 15.0995C5.44395 15.2362 5.11273 15.1542 4.8505 14.9355C4.7717 14.871 4.70611 14.7922 4.65728 14.7032C3.09775 12.7492 2.84932 9.94791 3.89822 7.7069C1.59341 9.5653 0.3375 12.7082 0.516916 15.6734C0.599723 16.3567 0.682531 17.0399 0.917151 17.7231C1.11037 18.543 1.483 19.3629 1.89704 20.0871C3.38757 22.4511 5.9684 24.1456 8.74245 24.4872C11.6959 24.8561 14.8564 24.3232 17.1198 22.3008C19.6454 20.0325 20.5287 16.3977 19.2314 13.2821L19.052 12.9268C18.7621 12.2982 17.9893 11.2051 17.9893 11.2051ZM13.6281 19.8138C13.2416 20.1418 12.6068 20.4971 12.1099 20.6337C10.5642 21.1803 9.01847 20.4151 8.10759 19.5132C9.74994 19.1306 10.7298 17.9281 11.0197 16.7119C11.2543 15.6188 10.8126 14.7169 10.6332 13.6647C10.4676 12.6535 10.4952 11.7926 10.8678 10.8498C11.1301 11.369 11.4061 11.8883 11.7373 12.2982C12.8 13.6647 14.47 14.266 14.8288 16.1244C14.884 16.3157 14.9116 16.507 14.9116 16.7119C14.953 17.8325 14.4562 19.0623 13.6281 19.8138Z" fill="#FD4D4D"/>
</svg>
