<svg width="274" height="38" viewBox="0 0 274 38" fill="none" xmlns="http://www.w3.org/2000/svg">
<g clip-path="url(#clip0_172_1987)">
<path d="M105.474 10.2815C107.055 12.0789 107.631 14.7391 107.271 18.6935C106.983 22.8635 105.977 25.4518 104.179 27.1054C102.31 28.831 99.2185 29.6937 94.6171 29.6937C90.0157 29.6937 86.9241 28.9029 85.0548 27.1054C83.3293 25.4518 82.3946 22.8635 82.0351 18.6935C81.6756 14.7391 82.2508 12.0789 83.8326 10.2815C85.7019 8.19648 89.153 7.18992 94.689 7.18992C100.153 7.18992 103.604 8.19648 105.474 10.2815ZM94.689 6.61475C83.6169 6.61475 80.741 10.7129 81.3881 18.7654C82.107 26.8897 84.9829 30.3408 94.6171 30.3408C104.251 30.3408 107.127 26.8897 107.846 18.7654C108.565 10.7129 105.689 6.61475 94.689 6.61475Z" fill="white"/>
<mask id="mask0_172_1987" style="mask-type:luminance" maskUnits="userSpaceOnUse" x="81" y="6" width="193" height="25">
<path d="M81.3882 6.75854V30.7722H273.713V6.75854" fill="white"/>
</mask>
<g mask="url(#mask0_172_1987)">
<path d="M94.6889 7.76514C84.7671 7.76514 82.035 11.4319 82.6821 18.7654C83.3292 26.027 85.9175 29.1186 94.617 29.1186C103.317 29.1186 105.905 26.027 106.552 18.7654C107.199 11.4319 104.611 7.76514 94.6889 7.76514ZM99.6498 9.49067C97.7086 14.3797 95.5517 19.053 94.9046 20.4909C94.8791 20.5238 94.8464 20.5504 94.809 20.5687C94.7716 20.5869 94.7306 20.5964 94.6889 20.5964C94.6473 20.5964 94.6063 20.5869 94.5689 20.5687C94.5315 20.5504 94.4988 20.5238 94.4732 20.4909C93.7543 18.9811 91.5974 14.3797 89.728 9.49067C89.6561 9.41877 89.728 9.34687 89.7999 9.34687C91.166 9.05929 92.8196 8.91549 94.7608 8.91549C96.7021 8.91549 98.2838 9.05929 99.7217 9.34687C99.6498 9.34687 99.7217 9.41877 99.6498 9.49067ZM83.7606 18.6216C83.5449 15.2424 83.9763 13.0136 85.2704 11.5038C85.9894 10.7129 86.9959 10.1377 88.362 9.70636C88.4339 9.70636 88.4339 9.70636 88.4339 9.85015V16.4647C88.4339 17.5431 88.7215 18.6216 89.2248 19.6282L93.6105 27.8244C93.6824 27.8963 93.6105 27.9682 93.5386 27.9682C90.0875 27.8244 87.8587 27.1774 86.4208 25.8113C84.9109 24.4453 84.1201 22.2165 83.7606 18.6216ZM105.545 18.6216C105.258 22.2165 104.395 24.4453 102.885 25.8113C101.447 27.1774 99.1466 27.8963 95.7674 27.9682C95.6236 27.9682 95.6236 27.8244 95.6236 27.8244L100.009 19.6282C100.513 18.6216 100.728 17.5431 100.728 16.4647V9.77826C100.728 9.63446 100.8 9.63446 100.872 9.63446C102.238 10.0658 103.245 10.641 103.964 11.4319C105.33 13.0136 105.833 15.2424 105.545 18.6216Z" fill="white"/>
</g>
<mask id="mask1_172_1987" style="mask-type:luminance" maskUnits="userSpaceOnUse" x="81" y="6" width="193" height="25">
<path d="M81.3882 6.75854V30.7722H273.713V6.75854" fill="white"/>
</mask>
<g mask="url(#mask1_172_1987)">
<path d="M120.859 23.8699C117.193 23.8699 115.036 22.5758 115.036 18.6933C115.036 15.1704 117.264 13.7324 121.003 13.7324H125.748V16.3926H121.219C119.421 16.3926 118.918 16.8959 118.918 18.7652C118.918 20.7783 119.421 21.2816 121.363 21.2816H125.748V23.9418H120.859V23.8699Z" fill="white"/>
</g>
<mask id="mask2_172_1987" style="mask-type:luminance" maskUnits="userSpaceOnUse" x="81" y="6" width="193" height="25">
<path d="M81.3882 6.75854V30.7722H273.713V6.75854" fill="white"/>
</mask>
<g mask="url(#mask2_172_1987)">
<path d="M140.559 13.6606V23.87H136.821V19.9876H132.651V23.87H128.912V13.6606H132.651V17.2555H136.821V13.6606H140.559Z" fill="white"/>
</g>
<mask id="mask3_172_1987" style="mask-type:luminance" maskUnits="userSpaceOnUse" x="81" y="6" width="193" height="25">
<path d="M81.3882 6.75854V30.7722H273.713V6.75854" fill="white"/>
</mask>
<g mask="url(#mask3_172_1987)">
<path d="M142.645 23.87L146.743 13.6606H150.194C151.056 13.6606 151.416 13.9482 151.632 14.5234L155.586 23.87H151.56L148.971 17.5431C148.828 17.1117 148.54 17.1117 148.396 17.5431L145.88 23.87H142.645Z" fill="white"/>
</g>
<mask id="mask4_172_1987" style="mask-type:luminance" maskUnits="userSpaceOnUse" x="81" y="6" width="193" height="25">
<path d="M81.3882 6.75854V30.7722H273.713V6.75854" fill="white"/>
</mask>
<g mask="url(#mask4_172_1987)">
<path d="M165.724 23.2949L160.978 18.8372C160.834 18.6215 160.691 18.6934 160.691 18.981V23.87H157.599V13.6606H159.612C160.331 13.6606 160.763 13.8044 161.122 14.092L166.083 18.6934C166.227 18.9091 166.371 18.7653 166.371 18.5496V13.6606H169.462V23.3668C169.462 23.6543 169.318 23.87 168.959 23.87H167.305C166.658 23.87 166.155 23.6543 165.724 23.2949Z" fill="white"/>
</g>
<mask id="mask5_172_1987" style="mask-type:luminance" maskUnits="userSpaceOnUse" x="81" y="6" width="193" height="25">
<path d="M81.3882 6.75854V30.7722H273.713V6.75854" fill="white"/>
</mask>
<g mask="url(#mask5_172_1987)">
<path d="M183.985 23.8699H178.305C174.423 23.8699 172.338 22.5758 172.338 18.6933C172.338 15.2423 174.351 13.7324 178.377 13.7324H184.417V16.3926H178.521C176.652 16.3926 176.077 16.824 176.077 18.7652C176.077 20.8502 176.58 21.4254 178.521 21.4254H180.75C180.894 21.4254 180.966 21.2816 180.966 21.1378V20.1313C180.966 19.9875 180.894 19.8437 180.75 19.8437H178.952V17.6868H183.841C184.129 17.6868 184.345 17.8306 184.345 18.19V23.3666C184.489 23.6542 184.273 23.8699 183.985 23.8699Z" fill="white"/>
</g>
<mask id="mask6_172_1987" style="mask-type:luminance" maskUnits="userSpaceOnUse" x="81" y="6" width="193" height="25">
<path d="M81.3882 6.75854V30.7722H273.713V6.75854" fill="white"/>
</mask>
<g mask="url(#mask6_172_1987)">
<path d="M186.646 23.87L190.744 13.6606H194.123C195.057 13.6606 195.345 13.9482 195.633 14.5234L199.515 23.87H195.561L192.972 17.5431C192.829 17.1117 192.541 17.1117 192.397 17.5431L189.881 23.87H186.646Z" fill="white"/>
</g>
<mask id="mask7_172_1987" style="mask-type:luminance" maskUnits="userSpaceOnUse" x="81" y="6" width="193" height="25">
<path d="M81.3882 6.75854V30.7722H273.713V6.75854" fill="white"/>
</mask>
<g mask="url(#mask7_172_1987)">
<path d="M209.724 23.2949L204.979 18.8372C204.764 18.6215 204.692 18.6934 204.692 18.981V23.87H201.6V13.6606H203.541C204.26 13.6606 204.764 13.8044 205.123 14.092L210.084 18.6934C210.228 18.9091 210.372 18.7653 210.372 18.5496V13.6606H213.463V23.3668C213.463 23.6543 213.319 23.87 212.96 23.87H211.306C210.659 23.87 210.156 23.6543 209.724 23.2949Z" fill="white"/>
</g>
<mask id="mask8_172_1987" style="mask-type:luminance" maskUnits="userSpaceOnUse" x="81" y="6" width="193" height="25">
<path d="M81.3882 6.75854V30.7722H273.713V6.75854" fill="white"/>
</mask>
<g mask="url(#mask8_172_1987)">
<path d="M219.431 23.87L223.529 13.6606H226.98C227.843 13.6606 228.202 13.9482 228.418 14.5234L232.372 23.87H228.346L225.758 17.5431C225.614 17.1117 225.326 17.1117 225.182 17.5431L222.666 23.87H219.431Z" fill="white"/>
</g>
<mask id="mask9_172_1987" style="mask-type:luminance" maskUnits="userSpaceOnUse" x="81" y="6" width="193" height="25">
<path d="M81.3882 6.75854V30.7722H273.713V6.75854" fill="white"/>
</mask>
<g mask="url(#mask9_172_1987)">
<path d="M245.314 13.6606V19.5562C245.314 23.1511 243.013 24.2295 239.49 24.2295C235.967 24.2295 233.667 23.223 233.667 19.5562V13.6606H237.333V18.981C237.333 21.066 238.412 21.5693 239.706 21.5693C241.072 21.5693 242.15 21.066 242.15 18.981V13.6606H245.314Z" fill="white"/>
</g>
<mask id="mask10_172_1987" style="mask-type:luminance" maskUnits="userSpaceOnUse" x="81" y="6" width="193" height="25">
<path d="M81.3882 6.75854V30.7722H273.713V6.75854" fill="white"/>
</mask>
<g mask="url(#mask10_172_1987)">
<path d="M247.686 13.6606H258.902V16.3927H255.163V23.87H251.425V16.3927H247.686V13.6606Z" fill="white"/>
</g>
<mask id="mask11_172_1987" style="mask-type:luminance" maskUnits="userSpaceOnUse" x="81" y="6" width="193" height="25">
<path d="M81.3882 6.75854V30.7722H273.713V6.75854" fill="white"/>
</mask>
<g mask="url(#mask11_172_1987)">
<path d="M273.784 18.6938C273.784 22.5043 271.556 24.158 267.098 24.158C262.712 24.158 260.412 22.5043 260.412 18.6938C260.412 14.8833 262.712 13.3015 267.098 13.3015C271.484 13.3015 273.784 14.8833 273.784 18.6938ZM264.222 18.6938C264.222 20.7069 264.941 21.5697 267.098 21.5697C269.255 21.5697 269.902 20.7788 269.902 18.6938C269.902 16.7526 269.183 15.9617 267.098 15.9617C264.941 15.9617 264.222 16.6807 264.222 18.6938Z" fill="white"/>
</g>
</g>
<path d="M12.4862 26.4334C12.4862 26.4334 10.5094 19.7288 10.4614 19.5651C10.3074 19.5651 8.98562 19.5651 8.78656 19.5651C8.78656 19.7859 8.78656 26.4334 8.78656 26.4334H6.21733V10.6968H8.78656C8.78656 10.6968 8.78656 17.1222 8.78656 17.343C8.98562 17.343 9.99283 17.343 9.99283 17.343C10.3054 17.343 10.5615 17.2034 10.7573 16.9255C11.0344 16.5588 11.129 16.0401 11.2467 14.9412L11.4104 13.5467C11.5103 12.6435 11.6675 11.7135 12.3822 11.1239C13.1187 10.5209 14.0996 10.5209 14.6255 10.5209H14.9755H15.0955V12.7414H14.6726C14.5256 12.7414 14.2944 12.8372 14.1487 12.957C13.9164 13.158 13.8289 13.6018 13.7205 14.5237L13.5579 16.0079L13.5382 16.1827C13.4778 16.7192 13.4194 17.2242 13.2247 17.6982L13.2238 17.7025C13.0903 17.9982 12.9424 18.1784 12.7363 18.3326C12.7767 18.4627 15.2764 26.4334 15.2764 26.4334H12.4862ZM28.546 26.4334H25.9766C25.9766 26.4334 25.9766 17.6836 25.9766 16.99C25.7632 17.6044 23.6226 23.7305 23.6226 23.7305H22.2157C22.2157 23.7305 20.0751 17.6014 19.8617 16.9889C19.8617 17.6804 19.8617 26.4334 19.8617 26.4334H17.2921V10.6968H19.825C19.825 10.6968 22.8673 18.794 22.9988 19.1418C23.1237 18.7907 26.0107 10.6968 26.0107 10.6968H28.4264H28.546V26.4334ZM42.9884 4.19617e-05L40.2158 6.11191H0V31.0689H28.896L26.6638 35.9907L30.0678 37.3914L43.8081 0.336555L42.9884 4.19617e-05ZM52.1875 26.4334H49.6188C49.6188 26.4334 49.6188 20.5391 49.6188 20.3192C49.419 20.3192 48.3887 20.3192 48.3887 20.3192C47.5043 20.3192 46.2276 20.2162 45.3444 19.3306C44.7109 18.693 44.4037 17.769 44.4037 16.5056V10.6968H46.9724V16.0755C46.9713 16.5399 46.9702 17.3159 47.4244 17.7284C47.8326 18.0983 48.5085 18.0983 49.0513 18.096C49.0513 18.096 49.4645 18.096 49.6188 18.096C49.6188 17.8752 49.6188 10.6968 49.6188 10.6968H52.0675H52.1875V26.4334ZM42.4563 6.11191L33.7967 31.0689H58.2367V6.11191H42.4563Z" fill="white"/>
<defs>
<clipPath id="clip0_172_1987">
<rect width="192.756" height="24.0136" fill="white" transform="translate(81.2441 6.47095)"/>
</clipPath>
</defs>
</svg>
