<svg width="23" height="32" viewBox="0 0 23 32" fill="none" xmlns="http://www.w3.org/2000/svg">
<path id="Vector" d="M22.9333 11.6648C22.9333 10.2623 22.6367 8.87342 22.0605 7.57761C21.4842 6.28179 20.6396 5.10439 19.5748 4.11261C18.51 3.12084 17.246 2.33412 15.8548 1.79738C14.4636 1.26063 12.9725 0.984375 11.4667 0.984375C9.96084 0.984375 8.46976 1.26063 7.07856 1.79738C5.68736 2.33412 4.42329 3.12084 3.35851 4.11261C2.29373 5.10439 1.4491 6.28179 0.872848 7.57761C0.296594 8.87342 -2.24385e-08 10.2623 0 11.6648C0 13.7811 0.669981 15.7494 1.8101 17.4094H1.79699L11.4667 31.5L21.1363 17.4094H21.1249C22.3057 15.6953 22.9334 13.7015 22.9333 11.6648ZM11.4667 16.2422C10.1633 16.2422 8.91335 15.7599 7.99174 14.9015C7.07013 14.0431 6.55238 12.8788 6.55238 11.6648C6.55238 10.4509 7.07013 9.28659 7.99174 8.42817C8.91335 7.56976 10.1633 7.0875 11.4667 7.0875C12.77 7.0875 14.02 7.56976 14.9416 8.42817C15.8632 9.28659 16.381 10.4509 16.381 11.6648C16.381 12.8788 15.8632 14.0431 14.9416 14.9015C14.02 15.7599 12.77 16.2422 11.4667 16.2422Z" fill="black"/>
</svg>
