<svg width="25" height="25" viewBox="0 0 25 25" fill="none" xmlns="http://www.w3.org/2000/svg">
<circle cx="12.5" cy="12.5" r="12" stroke="#0DA800"/>
<path d="M17.8396 18.1889L16.6586 15.7168C16.4044 15.1886 16.0758 14.8042 15.5085 15.0386L14.3894 15.4574C13.4935 15.8762 13.0471 15.4574 12.5976 14.8261L10.5827 10.2037C10.3285 9.67552 10.4618 9.1786 11.0291 8.94419L12.5945 8.31288C13.1618 8.07535 13.0719 7.58155 12.8177 7.05337L11.4755 4.53435C11.2213 4.00617 10.7005 3.87803 10.1332 4.11243C8.9986 4.58435 8.05932 5.32506 7.44863 6.42205C6.70464 7.76282 7.07663 9.62864 7.22543 10.4131C7.37423 11.1976 7.89502 12.5727 8.56771 13.9822C9.2404 15.3949 9.82939 16.5044 10.3595 17.1326C10.8865 17.7608 12.1512 19.4797 13.7167 19.8641C15.0001 20.1766 16.3858 19.9141 17.5203 19.4422C18.0907 19.2172 18.0907 18.7202 17.8396 18.1889Z" fill="#0DA800"/>
</svg>
