<svg width="382" height="52" viewBox="0 0 382 52" fill="none" xmlns="http://www.w3.org/2000/svg">
<g clip-path="url(#clip0_64_671)">
<path d="M146.7 14.3C148.9 16.8 149.7 20.5 149.2 26C148.8 31.7999 147.4 35.4 144.9 37.7C142.3 40.1 138 41.2999 131.6 41.2999C125.2 41.2999 120.9 40.2 118.3 37.7C115.9 35.4 114.6 31.7999 114.1 26C113.6 20.5 114.4 16.8 116.6 14.3C119.2 11.4 124 9.99995 131.7 9.99995C139.3 9.99995 144.1 11.4 146.7 14.3ZM131.7 9.19995C116.3 9.19995 112.3 14.9 113.2 26.1C114.2 37.4 118.2 42.2 131.6 42.2C145 42.2 149 37.4 150 26.1C151 14.9 147 9.19995 131.7 9.19995Z" fill="#181818"/>
<mask id="mask0_64_671" style="mask-type:luminance" maskUnits="userSpaceOnUse" x="113" y="9" width="268" height="34">
<path d="M113.2 9.3999V42.7999H380.7V9.3999" fill="white"/>
</mask>
<g mask="url(#mask0_64_671)">
<path d="M131.7 10.7998C117.9 10.7998 114.1 15.8998 115 26.0998C115.9 36.1998 119.5 40.4998 131.6 40.4998C143.7 40.4998 147.3 36.1998 148.2 26.0998C149.1 15.8998 145.5 10.7998 131.7 10.7998ZM138.6 13.1998C135.9 19.9998 132.9 26.4998 132 28.4998C131.964 28.5455 131.919 28.5825 131.867 28.6079C131.815 28.6333 131.758 28.6466 131.7 28.6466C131.642 28.6466 131.585 28.6333 131.533 28.6079C131.481 28.5825 131.435 28.5455 131.4 28.4998C130.4 26.3998 127.4 19.9998 124.8 13.1998C124.7 13.0998 124.8 12.9998 124.9 12.9998C126.8 12.5998 129.1 12.3998 131.8 12.3998C134.5 12.3998 136.7 12.5998 138.7 12.9998C138.6 12.9998 138.7 13.0998 138.6 13.1998ZM116.5 25.8998C116.2 21.1998 116.8 18.0998 118.6 15.9998C119.6 14.8998 121 14.0998 122.9 13.4998C123 13.4998 123 13.4998 123 13.6998V22.8998C123 24.3998 123.4 25.8998 124.1 27.2998L130.2 38.6998C130.3 38.7998 130.2 38.8998 130.1 38.8998C125.3 38.6998 122.2 37.7998 120.2 35.8998C118.1 33.9998 117 30.8998 116.5 25.8998ZM146.8 25.8998C146.4 30.8998 145.2 33.9998 143.1 35.8998C141.1 37.7998 137.9 38.7998 133.2 38.8998C133 38.8998 133 38.6998 133 38.6998L139.1 27.2998C139.8 25.8998 140.1 24.3998 140.1 22.8998V13.5998C140.1 13.3998 140.2 13.3998 140.3 13.3998C142.2 13.9998 143.6 14.7998 144.6 15.8998C146.5 18.0998 147.2 21.1998 146.8 25.8998Z" fill="#181818"/>
</g>
<mask id="mask1_64_671" style="mask-type:luminance" maskUnits="userSpaceOnUse" x="113" y="9" width="268" height="34">
<path d="M113.2 9.3999V42.7999H380.7V9.3999" fill="white"/>
</mask>
<g mask="url(#mask1_64_671)">
<path d="M168.1 33.1999C163 33.1999 160 31.3999 160 25.9999C160 21.0999 163.1 19.0999 168.3 19.0999H174.9V22.7999H168.6C166.1 22.7999 165.4 23.4999 165.4 26.0999C165.4 28.8999 166.1 29.5999 168.8 29.5999H174.9V33.2999H168.1V33.1999Z" fill="#181818"/>
</g>
<mask id="mask2_64_671" style="mask-type:luminance" maskUnits="userSpaceOnUse" x="113" y="9" width="268" height="34">
<path d="M113.2 9.3999V42.7999H380.7V9.3999" fill="white"/>
</mask>
<g mask="url(#mask2_64_671)">
<path d="M195.5 19V33.2H190.3V27.8H184.5V33.2H179.3V19H184.5V24H190.3V19H195.5Z" fill="#181818"/>
</g>
<mask id="mask3_64_671" style="mask-type:luminance" maskUnits="userSpaceOnUse" x="113" y="9" width="268" height="34">
<path d="M113.2 9.3999V42.7999H380.7V9.3999" fill="white"/>
</mask>
<g mask="url(#mask3_64_671)">
<path d="M198.4 33.2L204.1 19H208.9C210.1 19 210.6 19.4 210.9 20.2L216.4 33.2H210.8L207.2 24.4C207 23.8 206.6 23.8 206.4 24.4L202.9 33.2H198.4Z" fill="#181818"/>
</g>
<mask id="mask4_64_671" style="mask-type:luminance" maskUnits="userSpaceOnUse" x="113" y="9" width="268" height="34">
<path d="M113.2 9.3999V42.7999H380.7V9.3999" fill="white"/>
</mask>
<g mask="url(#mask4_64_671)">
<path d="M230.5 32.4L223.9 26.2C223.7 25.9 223.5 26 223.5 26.4V33.2H219.2V19H222C223 19 223.6 19.2 224.1 19.6L231 26C231.2 26.3 231.4 26.1 231.4 25.8V19H235.7V32.5C235.7 32.9 235.5 33.2 235 33.2H232.7C231.8 33.2 231.1 32.9 230.5 32.4Z" fill="#181818"/>
</g>
<mask id="mask5_64_671" style="mask-type:luminance" maskUnits="userSpaceOnUse" x="113" y="9" width="268" height="34">
<path d="M113.2 9.3999V42.7999H380.7V9.3999" fill="white"/>
</mask>
<g mask="url(#mask5_64_671)">
<path d="M255.9 33.1999H248C242.6 33.1999 239.7 31.3999 239.7 25.9999C239.7 21.1999 242.5 19.0999 248.1 19.0999H256.5V22.7999H248.3C245.7 22.7999 244.9 23.3999 244.9 26.0999C244.9 28.9999 245.6 29.7999 248.3 29.7999H251.4C251.6 29.7999 251.7 29.5999 251.7 29.3999V27.9999C251.7 27.7999 251.6 27.5999 251.4 27.5999H248.9V24.5999H255.7C256.1 24.5999 256.4 24.7999 256.4 25.2999V32.4999C256.6 32.8999 256.3 33.1999 255.9 33.1999Z" fill="#181818"/>
</g>
<mask id="mask6_64_671" style="mask-type:luminance" maskUnits="userSpaceOnUse" x="113" y="9" width="268" height="34">
<path d="M113.2 9.3999V42.7999H380.7V9.3999" fill="white"/>
</mask>
<g mask="url(#mask6_64_671)">
<path d="M259.6 33.2L265.3 19H270C271.3 19 271.7 19.4 272.1 20.2L277.5 33.2H272L268.4 24.4C268.2 23.8 267.8 23.8 267.6 24.4L264.1 33.2H259.6Z" fill="#181818"/>
</g>
<mask id="mask7_64_671" style="mask-type:luminance" maskUnits="userSpaceOnUse" x="113" y="9" width="268" height="34">
<path d="M113.2 9.3999V42.7999H380.7V9.3999" fill="white"/>
</mask>
<g mask="url(#mask7_64_671)">
<path d="M291.7 32.4L285.1 26.2C284.8 25.9 284.7 26 284.7 26.4V33.2H280.4V19H283.1C284.1 19 284.8 19.2 285.3 19.6L292.2 26C292.4 26.3 292.6 26.1 292.6 25.8V19H296.9V32.5C296.9 32.9 296.7 33.2 296.2 33.2H293.9C293 33.2 292.3 32.9 291.7 32.4Z" fill="#181818"/>
</g>
<mask id="mask8_64_671" style="mask-type:luminance" maskUnits="userSpaceOnUse" x="113" y="9" width="268" height="34">
<path d="M113.2 9.3999V42.7999H380.7V9.3999" fill="white"/>
</mask>
<g mask="url(#mask8_64_671)">
<path d="M305.2 33.2L310.9 19H315.7C316.9 19 317.4 19.4 317.7 20.2L323.2 33.2H317.6L314 24.4C313.8 23.8 313.4 23.8 313.2 24.4L309.7 33.2H305.2Z" fill="#181818"/>
</g>
<mask id="mask9_64_671" style="mask-type:luminance" maskUnits="userSpaceOnUse" x="113" y="9" width="268" height="34">
<path d="M113.2 9.3999V42.7999H380.7V9.3999" fill="white"/>
</mask>
<g mask="url(#mask9_64_671)">
<path d="M341.2 19V27.2C341.2 32.2 338 33.7 333.1 33.7C328.2 33.7 325 32.3 325 27.2V19H330.1V26.4C330.1 29.3 331.6 30 333.4 30C335.3 30 336.8 29.3 336.8 26.4V19H341.2Z" fill="#181818"/>
</g>
<mask id="mask10_64_671" style="mask-type:luminance" maskUnits="userSpaceOnUse" x="113" y="9" width="268" height="34">
<path d="M113.2 9.3999V42.7999H380.7V9.3999" fill="white"/>
</mask>
<g mask="url(#mask10_64_671)">
<path d="M344.5 19H360.1V22.8H354.9V33.2H349.7V22.8H344.5V19Z" fill="#181818"/>
</g>
<mask id="mask11_64_671" style="mask-type:luminance" maskUnits="userSpaceOnUse" x="113" y="9" width="268" height="34">
<path d="M113.2 9.3999V42.7999H380.7V9.3999" fill="white"/>
</mask>
<g mask="url(#mask11_64_671)">
<path d="M380.8 26C380.8 31.3 377.7 33.6 371.5 33.6C365.4 33.6 362.2 31.3 362.2 26C362.2 20.7 365.4 18.5 371.5 18.5C377.6 18.5 380.8 20.7 380.8 26ZM367.5 26C367.5 28.8 368.5 30 371.5 30C374.5 30 375.4 28.9 375.4 26C375.4 23.3 374.4 22.2 371.5 22.2C368.5 22.2 367.5 23.2 367.5 26Z" fill="#181818"/>
</g>
</g>
<path d="M17.3668 36.7654C17.3668 36.7654 14.6172 27.4401 14.5505 27.2125C14.3363 27.2125 12.4979 27.2125 12.221 27.2125C12.221 27.5196 12.221 36.7654 12.221 36.7654H8.64754V14.8778H12.221C12.221 14.8778 12.221 23.8147 12.221 24.1218C12.4979 24.1218 13.8988 24.1218 13.8988 24.1218C14.3336 24.1218 14.6897 23.9276 14.9621 23.5411C15.3474 23.031 15.4791 22.3096 15.6428 20.7812L15.8704 18.8416C16.0094 17.5854 16.228 16.2919 17.2221 15.4718C18.2464 14.6331 19.6108 14.6331 20.3423 14.6331H20.8291H20.996V17.7216H20.4077C20.2033 17.7216 19.8817 17.8547 19.6791 18.0214C19.3559 18.3011 19.2342 18.9183 19.0836 20.2005L18.8574 22.2649L18.8299 22.508C18.746 23.2542 18.6647 23.9566 18.3939 24.6158L18.3926 24.6218C18.2069 25.0332 18.0013 25.2838 17.7146 25.4982C17.7709 25.6791 21.2476 36.7654 21.2476 36.7654H17.3668ZM39.704 36.7654H36.1303C36.1303 36.7654 36.1303 24.5956 36.1303 23.6308C35.8334 24.4854 32.8562 33.006 32.8562 33.006H30.8992C30.8992 33.006 27.922 24.4812 27.6251 23.6293C27.6251 24.5911 27.6251 36.7654 27.6251 36.7654H24.0512V14.8778H27.5742C27.5742 14.8778 31.8056 26.1399 31.9885 26.6237C32.1622 26.1354 36.1777 14.8778 36.1777 14.8778H39.5375H39.704V36.7654ZM59.7916 -9.15527e-05L55.9353 8.50076H0V43.2129H40.1908L37.0861 50.0584L41.8206 52.0066L60.9316 0.46796L59.7916 -9.15527e-05ZM72.5864 36.7654H69.0136C69.0136 36.7654 69.0136 28.5672 69.0136 28.2613C68.7358 28.2613 67.3026 28.2613 67.3026 28.2613C66.0726 28.2613 64.2969 28.1181 63.0684 26.8864C62.1873 25.9995 61.76 24.7143 61.76 22.9571V14.8778H65.3327V22.3588C65.3312 23.0048 65.3297 24.0841 65.9614 24.6578C66.5292 25.1724 67.4693 25.1724 68.2242 25.1691C68.2242 25.1691 68.799 25.1691 69.0136 25.1691C69.0136 24.862 69.0136 14.8778 69.0136 14.8778H72.4194H72.5864V36.7654ZM59.0514 8.50076L47.0071 43.2129H81V8.50076H59.0514Z" fill="#F58113"/>
<defs>
<clipPath id="clip0_64_671">
<rect width="268.1" height="33.4" fill="white" transform="translate(113 9)"/>
</clipPath>
</defs>
</svg>
