<svg width="39" height="39" viewBox="0 0 39 39" fill="none" xmlns="http://www.w3.org/2000/svg">
<g id="g3397">
<g id="g3403">
<path id="path3405" d="M22.988 4.44603C24.6796 4.83502 26.265 5.50228 27.6934 6.39677L29.0632 5.02703C29.6633 4.42691 30.6452 4.42691 31.2453 5.02703L33.973 7.7547C34.5732 8.35482 34.5732 9.33678 33.973 9.93682L32.6028 11.3069C33.4971 12.7354 34.1642 14.3205 34.5532 16.012H36.4894C37.3381 16.012 38.0324 16.7064 38.0324 17.555V21.4126C38.0324 22.2612 37.3381 22.9556 36.4894 22.9556H34.5538C34.1648 24.6471 33.4976 26.2324 32.6031 27.6608L33.973 29.0307C34.5732 29.6309 34.5732 30.6128 33.973 31.2129L31.2453 33.9406C30.6452 34.5407 29.6633 34.5407 29.0632 33.9406L27.6932 32.5706C26.2648 33.465 24.6796 34.1325 22.988 34.5215V36.457C22.988 37.3056 22.2936 38 21.445 38H17.5875C16.7387 38 16.0444 37.3056 16.0444 36.457V34.5214C14.3529 34.1323 12.7675 33.4652 11.3392 32.5707L9.96927 33.9406C9.36915 34.5407 8.38727 34.5407 7.78715 33.9406L5.0594 31.2129C4.45928 30.6128 4.45928 29.6309 5.0594 29.0307L6.42937 27.6608C5.53495 26.2323 4.86747 24.6472 4.47848 22.9556H2.54301C1.69436 22.9556 1 22.2612 1 21.4126V17.555C1 16.7064 1.69436 16.012 2.54301 16.012H4.47855C4.86769 14.3204 5.5348 12.7352 6.4293 11.3067L5.0594 9.93682C4.45928 9.33678 4.45928 8.35482 5.0594 7.7547L7.78715 5.02703C8.38727 4.42691 9.36915 4.42691 9.96927 5.02703L11.3392 6.39693C12.7677 5.50251 14.3528 4.83502 16.0444 4.44603V2.51057C16.0444 1.66191 16.7387 0.967557 17.5875 0.967557H21.445C22.2936 0.967557 22.988 1.66191 22.988 2.51057V4.44603Z" stroke="#7C79A8" stroke-width="1.13878" stroke-miterlimit="22.926" stroke-linecap="round" stroke-linejoin="round"/>
</g>
<g id="g3407">
<path id="path3409" d="M24.7732 29.4767C23.2031 30.3045 21.4144 30.7737 19.5162 30.7737C13.2807 30.7737 8.22583 25.7188 8.22583 19.4833C8.22583 17.5852 8.69483 15.7968 9.52249 14.2269M14.2591 9.49005C15.8293 8.66232 17.6178 8.19301 19.5162 8.19301C25.7516 8.19301 30.8064 13.2479 30.8064 19.4833C30.8064 21.3816 30.3373 23.1699 29.5098 24.7399" stroke="#7C79A8" stroke-width="1.13878" stroke-miterlimit="22.926" stroke-linecap="round" stroke-linejoin="round"/>
</g>
<g id="g3411">
<path id="path3413" d="M13.6424 20.3619C12.9436 19.6631 12.9436 18.53 13.6424 17.8312C14.3413 17.1324 15.4743 17.1324 16.1731 17.8312L18.238 19.8961L22.8591 15.275C23.5579 14.5761 24.691 14.5761 25.3899 15.275C26.0887 15.9738 26.0887 17.1069 25.3899 17.8057L19.5033 23.6922C18.8045 24.391 17.6715 24.391 16.9727 23.6922L13.6424 20.3619Z" stroke="#7C79A8" stroke-width="1.13878" stroke-miterlimit="22.926" stroke-linecap="round" stroke-linejoin="round"/>
</g>
<g id="g3415">
<path id="path3417" d="M11.5323 11.5007L11.5346 11.4985" stroke="#7C79A8" stroke-width="1.13878" stroke-miterlimit="2.613" stroke-linecap="round" stroke-linejoin="round"/>
</g>
<g id="g3419">
<path id="path3421" d="M27.4995 27.4673L27.5007 27.4658" stroke="#7C79A8" stroke-width="1.13878" stroke-miterlimit="2.613" stroke-linecap="round" stroke-linejoin="round"/>
</g>
</g>
</svg>
