<svg width="37" height="37" viewBox="0 0 37 37" fill="none" xmlns="http://www.w3.org/2000/svg">
<g id="Vector">
<path d="M0.149297 20.9004C0.000113998 21.2637 -0.0383399 21.6629 0.0387704 22.048C0.115881 22.433 0.305113 22.7867 0.582672 23.0645L2.30366 24.7855C2.36596 24.8478 2.41528 24.9219 2.44876 25.0035C2.48223 25.085 2.49921 25.1724 2.49869 25.2605V27.6908C2.49782 28.2059 2.69917 28.7007 3.05941 29.0689C3.18177 29.1901 3.34684 29.2585 3.51909 29.2592C3.69134 29.2599 3.85699 29.193 3.98038 29.0728C4.10376 28.9526 4.17501 28.7888 4.17879 28.6165C4.18256 28.4443 4.11856 28.2775 4.00056 28.152C3.94044 28.0913 3.8929 28.0193 3.86064 27.9401C3.82839 27.861 3.81207 27.7762 3.81261 27.6908V25.2605C3.81359 24.9997 3.76283 24.7414 3.66328 24.5004C3.56373 24.2593 3.41735 24.0405 3.23263 23.8564L1.51165 22.1354C1.41758 22.041 1.35344 21.9209 1.32725 21.7902C1.30107 21.6595 1.31399 21.5239 1.36441 21.4005L2.30045 19.1522C2.49637 18.6638 2.49522 18.1185 2.29724 17.631L1.36634 15.3958C1.31489 15.2719 1.30123 15.1356 1.32709 15.0039C1.35295 14.8723 1.41716 14.7513 1.51165 14.6561L3.23263 12.9351C3.41735 12.751 3.56372 12.5322 3.66328 12.2912C3.76283 12.0501 3.81359 11.7918 3.81261 11.531V9.10077C3.81357 8.96802 3.85336 8.83846 3.92706 8.72806C4.00076 8.61765 4.10515 8.53121 4.22737 8.47941L6.47764 7.55171C6.96443 7.34857 7.35109 6.9611 7.55321 6.47388L8.47642 4.2345C8.52761 4.1107 8.61409 4.0047 8.72509 3.92969C8.83609 3.85468 8.9667 3.81399 9.10066 3.81267H11.5309C11.7916 3.81365 12.05 3.7629 12.291 3.66334C12.532 3.56379 12.7509 3.41741 12.9349 3.23269L14.6559 1.51169C14.7503 1.41744 14.8704 1.35317 15.0011 1.32698C15.1319 1.30078 15.2675 1.31382 15.3908 1.36446L17.6392 2.3005C18.1275 2.49642 18.6728 2.49527 19.1603 2.2973L21.3955 1.36638C21.5194 1.31499 21.6557 1.30137 21.7873 1.32723C21.9189 1.35308 22.04 1.41726 22.1352 1.51169L23.8562 3.23269C24.0402 3.41741 24.2591 3.56379 24.5001 3.66334C24.7411 3.7629 24.9995 3.81365 25.2603 3.81267H27.6905C27.7774 3.8124 27.8634 3.82943 27.9437 3.86274C28.0239 3.89606 28.0967 3.94501 28.1579 4.00675C28.2109 3.79398 29.2178 6.51363 29.2437 6.48762C29.3439 6.72711 29.4902 6.94451 29.6744 7.12737C29.8587 7.31024 30.0771 7.45498 30.3174 7.55332L32.559 8.47749C32.6819 8.5294 32.787 8.61599 32.8615 8.72668C32.936 8.83737 32.9767 8.96736 32.9785 9.10077V11.531C32.9776 11.7918 33.0283 12.0501 33.1279 12.2911C33.2274 12.5322 33.3738 12.751 33.5585 12.9351L35.2795 14.6561C35.3736 14.7505 35.4377 14.8706 35.4639 15.0013C35.4901 15.1321 35.4772 15.2676 35.4267 15.391L34.4907 17.6394C34.2948 18.1277 34.2959 18.673 34.4939 19.1605L35.4248 21.3957C35.4763 21.5196 35.4899 21.6559 35.4641 21.7876C35.4382 21.9192 35.374 22.0402 35.2795 22.1355L33.5585 23.8564C33.3738 24.0405 33.2274 24.2593 33.1279 24.5004C33.0283 24.7414 32.9776 24.9997 32.9785 25.2605V27.6907C32.9776 27.8235 32.9378 27.953 32.8641 28.0635C32.7904 28.1739 32.686 28.2603 32.5638 28.3121L30.3135 29.2398C29.8267 29.4429 29.44 29.8304 29.2379 30.3176L28.3147 32.557C28.2635 32.6808 28.177 32.7868 28.066 32.8618C27.9551 32.9368 27.8244 32.9775 27.6905 32.9788H25.2603C24.9995 32.9779 24.7411 33.0286 24.5001 33.1282C24.2591 33.2277 24.0403 33.3741 23.8562 33.5588L22.1352 35.2798C22.0408 35.374 21.9207 35.4382 21.79 35.4644C21.6593 35.4905 21.5237 35.4776 21.4003 35.4271L19.152 34.491C18.6636 34.2951 18.1183 34.2962 17.6308 34.4942L15.3956 35.4251C15.2717 35.4763 15.1354 35.4898 15.0039 35.4639C14.8723 35.4381 14.7513 35.3741 14.6559 35.2798L12.9349 33.5588C12.7509 33.3741 12.532 33.2277 12.291 33.1282C12.05 33.0286 11.7916 32.9779 11.5309 32.9788H9.10066C8.96813 32.977 8.83896 32.9368 8.72873 32.8632C8.61849 32.7896 8.53187 32.6858 8.47931 32.5641L7.54744 30.3039C7.34142 29.7561 6.73272 29.1551 6.19243 29.67C5.8174 30.0564 6.0624 30.4558 6.33882 30.8187C6.59957 31.314 7.24947 33.3909 7.72256 33.732C8.09072 34.0923 8.58557 34.2936 9.10066 34.2928H11.5309C11.619 34.2923 11.7064 34.3092 11.788 34.3427C11.8695 34.3762 11.9436 34.4255 12.006 34.4878L13.7269 36.2088C14.0055 36.4868 14.3601 36.676 14.746 36.7528C15.132 36.8296 15.532 36.7904 15.8957 36.6403L18.1274 35.7107C18.2965 35.642 18.4855 35.6408 18.6554 35.7075L20.9002 36.6422C21.2635 36.7912 21.6627 36.8295 22.0477 36.7524C22.4327 36.6753 22.7863 36.4862 23.0643 36.2088L24.7852 34.4878C24.8476 34.4255 24.9217 34.3762 25.0032 34.3427C25.0848 34.3093 25.1722 34.2923 25.2603 34.2928H27.6905C28.0834 34.2914 28.467 34.1742 28.7936 33.9558C29.1201 33.7375 29.375 33.4277 29.5264 33.0652L30.4508 30.8226C30.5201 30.6559 30.6522 30.523 30.8185 30.4527L33.0719 29.5237C33.4328 29.3718 33.741 29.1169 33.9581 28.791C34.1751 28.465 34.2914 28.0824 34.2925 27.6908V25.2605C34.292 25.1723 34.309 25.085 34.3424 25.0034C34.3759 24.9219 34.4252 24.8478 34.4875 24.7854L36.2085 23.0644C36.4865 22.7859 36.6758 22.4313 36.7526 22.0453C36.8293 21.6594 36.7902 21.2593 36.64 20.8956L35.7104 18.6639C35.6417 18.4948 35.6405 18.3058 35.7072 18.1359L36.6419 15.8911C36.7911 15.5278 36.8295 15.1286 36.7524 14.7435C36.6753 14.3585 36.4861 14.0049 36.2085 13.7271L34.4876 12.0061C34.4253 11.9437 34.3759 11.8696 34.3425 11.7881C34.309 11.7065 34.292 11.6191 34.2925 11.531V9.10077C34.2911 8.70796 34.1738 8.32431 33.9555 7.99778C33.7371 7.67125 33.4273 7.41634 33.0649 7.26493L30.8323 6.3446C30.7471 6.31153 30.6696 6.26153 30.6043 6.19763C30.539 6.13373 30.4874 6.05725 30.4525 5.97282L29.5245 3.72156C29.3721 3.36052 29.1171 3.05217 28.7911 2.83478C28.4651 2.61739 28.0824 2.50054 27.6906 2.49875H25.2603C25.1721 2.49926 25.0847 2.48229 25.0032 2.44881C24.9216 2.41533 24.8475 2.36601 24.7852 2.30371L23.0642 0.58271C22.7857 0.304725 22.4311 0.115412 22.0451 0.0386316C21.6592 -0.0381489 21.2591 0.00103909 20.8954 0.151257L18.6637 1.08086C18.4946 1.14956 18.3056 1.15071 18.1357 1.08407L15.8909 0.149305C15.5277 0.000115741 15.1284 -0.0383413 14.7434 0.03877C14.3583 0.115881 14.0047 0.305118 13.7269 0.582684L12.006 2.30371C11.9436 2.36601 11.8695 2.41533 11.788 2.44881C11.7064 2.48229 11.619 2.49926 11.5309 2.49875H9.10066C8.70784 2.50015 8.32416 2.61736 7.99762 2.83572C7.67108 3.05408 7.41619 3.36389 7.26484 3.72638L6.34035 5.96897C6.27105 6.13569 6.13903 6.26853 5.97273 6.33884L3.71926 7.26781C3.35835 7.41979 3.05016 7.67463 2.83312 8.00058C2.61607 8.32652 2.49976 8.70914 2.49869 9.10074V11.531C2.49921 11.6191 2.48223 11.7065 2.44876 11.7881C2.41528 11.8696 2.36596 11.9437 2.30366 12.0061L0.582672 13.7271C0.304702 14.0056 0.115399 14.3602 0.03862 14.7462C-0.0381592 15.1321 0.00102077 15.5322 0.151222 15.8959L1.08082 18.1276C1.14951 18.2967 1.15066 18.4857 1.08403 18.6556L0.149297 20.9004Z" fill="#7C79A8"/>
<path d="M27.6821 10.0381C27.7432 9.97711 27.7916 9.90469 27.8246 9.825C27.8576 9.7453 27.8746 9.65987 27.8746 9.5736C27.8746 9.48733 27.8576 9.40191 27.8246 9.32221C27.7916 9.24251 27.7432 9.17009 27.6821 9.10911C26.8579 8.2804 25.9236 7.56897 24.9055 6.99483C22.9088 5.85065 20.6464 5.25163 18.3452 5.25785C16.044 5.26408 13.7849 5.87533 11.7945 7.0303C9.80405 8.18527 8.15234 9.84334 7.00503 11.8382C5.85772 13.833 5.25514 16.0945 5.25775 18.3958C5.12423 25.4524 11.3439 31.6679 18.3957 31.5336C28.3251 31.6628 34.8554 20.4251 29.7962 11.8857C29.7074 11.7382 29.5643 11.6315 29.3976 11.5885C29.2309 11.5455 29.054 11.5697 28.905 11.6558C28.7559 11.7419 28.6466 11.8831 28.6006 12.049C28.5546 12.2149 28.5756 12.3922 28.659 12.5428C33.2211 20.171 27.2926 30.3811 18.3954 30.2197C12.054 30.3415 6.44873 24.7437 6.57177 18.3957C6.57088 16.0571 7.26375 13.7708 8.5627 11.8261C9.86165 9.88147 11.7083 8.36585 13.8689 7.47109C16.0296 6.57632 18.4071 6.34262 20.7005 6.79957C22.994 7.25652 25.1004 8.38357 26.7532 10.0381C26.8141 10.0991 26.8866 10.1475 26.9663 10.1805C27.046 10.2136 27.1314 10.2306 27.2177 10.2306C27.3039 10.2306 27.3893 10.2136 27.469 10.1805C27.5487 10.1475 27.6212 10.0991 27.6821 10.0381Z" fill="#7C79A8"/>
<path d="M16.8622 13.483C16.7515 9.66153 11.9369 9.66228 11.8266 13.4831C11.9374 17.3044 16.752 17.3037 16.8622 13.483ZM13.1406 13.483C13.1864 11.4027 15.5027 11.403 15.5483 13.483C15.5025 15.5632 13.1862 15.5629 13.1406 13.483Z" fill="#7C79A8"/>
<path d="M22.4467 26.1985C25.7716 26.0844 25.7707 20.5321 22.4466 20.4186C19.1218 20.5327 19.1227 26.0851 22.4467 26.1985ZM22.4467 21.7326C24.0314 21.7786 24.031 24.839 22.4466 24.8846C20.862 24.8386 20.8624 21.7781 22.4467 21.7326Z" fill="#7C79A8"/>
<path d="M13.9415 26.1106C14.0925 26.1974 14.2718 26.2209 14.44 26.1758C14.6083 26.1307 14.7518 26.0207 14.8391 25.87L23.0902 11.5785C23.1773 11.4276 23.2009 11.2482 23.1558 11.0799C23.1107 10.9116 23.0005 10.7681 22.8496 10.6809C22.6987 10.5938 22.5193 10.5702 22.351 10.6153C22.1827 10.6605 22.0392 10.7706 21.9521 10.9215L13.701 25.2131C13.6139 25.364 13.5903 25.5433 13.6354 25.7116C13.6805 25.8799 13.7906 26.0234 13.9415 26.1106Z" fill="#7C79A8"/>
</g>
</svg>
