<svg width="36" height="36" viewBox="0 0 36 36" fill="none" xmlns="http://www.w3.org/2000/svg">
<g id="Vector">
<path d="M34.7276 21.0366H34.1728V16.1954C34.1728 15.429 33.779 14.7504 33.1776 14.3381V13.6789C33.1776 12.7227 32.3746 11.9449 31.3876 11.9449H30.9733L32.5583 9.69177C33.0896 8.93656 32.8876 7.90337 32.108 7.38863L21.3526 0.288356C20.9749 0.0389838 20.5197 -0.053049 20.0705 0.029514C19.6215 0.111937 19.2324 0.358784 18.975 0.72467L9.69172 13.9209H7.10842L7.73167 7.80902C7.73869 7.74014 7.78489 7.68044 7.84934 7.65694C8.65232 7.36366 9.3482 6.81595 9.80874 6.11476C9.84502 6.05956 9.91345 6.02799 9.98427 6.03493L14.0361 6.42271C14.3266 6.44999 14.585 6.24503 14.6137 5.96374C14.6424 5.68245 14.4303 5.43195 14.1399 5.40417L10.0881 5.0164C9.61779 4.97179 9.16927 5.18174 8.91727 5.5653C8.57867 6.08088 8.06701 6.48353 7.47663 6.69916C7.03224 6.86148 6.72709 7.24813 6.68017 7.70836L6.04671 13.9209H5.37306L6.35873 4.25432C6.39422 3.9064 6.71478 3.65078 7.07438 3.68564L15.2623 4.46918C15.5527 4.49633 15.8113 4.2915 15.84 4.01021C15.8686 3.72892 15.6565 3.47843 15.3662 3.45065L7.17822 2.66711C6.23947 2.57739 5.4 3.24414 5.30724 4.15366L4.51273 11.9449H3.15971C2.17273 11.9449 1.36968 12.7227 1.36968 13.6789V14.1286C0.562208 14.4887 0 15.2794 0 16.1954V33.6406C0 34.8949 1.05331 35.9152 2.34811 35.9152H31.8247C33.1195 35.9152 34.1728 34.8949 34.1728 33.6406V28.7995H34.7276C35.3825 28.7995 35.9152 28.2834 35.9152 27.6491V22.1871C35.9153 21.5527 35.3825 21.0366 34.7276 21.0366ZM31.3876 12.9685C31.7921 12.9684 32.121 13.2871 32.121 13.679V13.9397C32.0239 13.9278 31.9252 13.921 31.8247 13.921H29.5832L30.2532 12.9685H31.3876ZM19.8481 1.301C19.9466 1.16105 20.0954 1.06664 20.2672 1.03507C20.3082 1.02756 20.3494 1.02378 20.3903 1.02378C20.5205 1.02378 20.6476 1.06152 20.7575 1.13405L31.513 8.23432C31.8112 8.43123 31.8885 8.82643 31.6853 9.1153L28.3047 13.9208H27.4934L29.1508 11.5648C29.4196 11.1827 29.4418 10.6964 29.2085 10.2957C28.8984 9.76325 28.7727 9.13634 28.8545 8.53034C28.9154 8.07951 28.7106 7.63941 28.3201 7.38169L22.7445 3.70094C22.354 3.44315 21.8563 3.41951 21.4454 3.63928C20.8932 3.9346 20.2449 4.05055 19.62 3.96581C19.1566 3.90282 18.6866 4.10554 18.4217 4.48188L11.7816 13.9209H10.9703L19.8481 1.301ZM20.0808 9.99157C17.7802 9.99157 15.8917 11.7293 15.7378 13.9209H13.06L19.2947 5.05828H19.2947C19.3301 5.00784 19.3889 4.97782 19.4492 4.97782C19.4572 4.97782 19.4653 4.97838 19.4733 4.97943C20.3233 5.09462 21.2049 4.93707 21.956 4.53533C22.015 4.50363 22.0909 4.50819 22.1494 4.54677L27.7251 8.22759C27.7835 8.26617 27.8156 8.33295 27.8069 8.39777C27.6956 9.22192 27.8666 10.0745 28.2883 10.7985C28.3221 10.8567 28.318 10.9312 28.2778 10.9884L26.215 13.9208H24.424C24.27 11.7293 22.3815 9.99157 20.0808 9.99157ZM23.3645 13.9209H16.7971C16.9484 12.2943 18.3629 11.0152 20.0808 11.0152C21.7987 11.0151 23.2133 12.2943 23.3645 13.9209ZM2.42624 13.6789C2.42624 13.2871 2.75521 12.9683 3.15971 12.9683H4.40838L4.31128 13.9209H2.42624V13.6789ZM1.05657 16.1954C1.05657 15.5056 1.63594 14.9444 2.34811 14.9444H31.8247C32.5369 14.9444 33.1162 15.5056 33.1162 16.1954V17.6155H1.05657V16.1954ZM33.1162 33.6406C33.1162 34.3305 32.5369 34.8917 31.8247 34.8917H2.34811C1.63594 34.8917 1.05657 34.3305 1.05657 33.6406V32.2206H3.90541C4.19723 32.2206 4.43365 31.9915 4.43365 31.7089C4.43365 31.4262 4.19716 31.1971 3.90541 31.1971H1.05657V18.639H33.1162V21.0366H28.0932C26.5105 21.0366 25.1396 21.9303 24.489 23.2239C24.4868 23.2282 24.4844 23.2324 24.4821 23.2368C24.4766 23.2478 24.4718 23.2592 24.4665 23.2703C24.389 23.4298 24.3217 23.5948 24.2669 23.7651C24.2667 23.7656 24.2666 23.7661 24.2664 23.7665C24.1495 24.1305 24.0864 24.5173 24.0864 24.9181C24.0864 27.0583 25.8838 28.7995 28.0931 28.7995H33.1161V31.1971H7.28807C6.99625 31.1971 6.75982 31.4262 6.75982 31.7089C6.75982 31.9915 6.99632 32.2206 7.28807 32.2206H33.1162V33.6406ZM34.8587 27.649C34.8587 27.719 34.7999 27.776 34.7276 27.776H28.0933C26.9749 27.776 25.9998 27.17 25.4997 26.2792C25.4769 26.2387 25.4552 26.1976 25.4344 26.156C25.3929 26.0728 25.3555 25.9873 25.3224 25.8997C25.2064 25.5935 25.1431 25.2628 25.1431 24.9181C25.1431 24.5734 25.2065 24.2427 25.3224 23.9364C25.3556 23.849 25.393 23.7635 25.4344 23.6801C25.4552 23.6385 25.4769 23.5974 25.4997 23.5569C25.9998 22.6661 26.9749 22.0601 28.0933 22.0601H34.7276C34.7999 22.0601 34.8587 22.1171 34.8587 22.1871V27.649Z" fill="#7C79A8"/>
<path d="M28.2171 22.8417C27.0352 22.8417 26.0737 23.7732 26.0737 24.9181C26.0737 26.0629 27.0352 26.9944 28.2171 26.9944C29.399 26.9944 30.3605 26.0629 30.3605 24.9181C30.3605 23.7732 29.399 22.8417 28.2171 22.8417ZM28.2171 25.9708C27.6178 25.9708 27.1302 25.4985 27.1302 24.9181C27.1302 24.3376 27.6178 23.8652 28.2171 23.8652C28.8164 23.8652 29.3039 24.3375 29.3039 24.9181C29.3039 25.4986 28.8164 25.9708 28.2171 25.9708Z" fill="#7C79A8"/>
</g>
</svg>
